<?xml version="1.0" encoding="UTF-8"?>
<svg xmlns="http://www.w3.org/2000/svg" id="Layer_1" data-name="Layer 1" viewBox="0 0 841.9 595.3">
  <defs>
    <style>.cls-1{fill:#4bc1e2;}.cls-2{fill:#37a2c3;}.cls-3{fill:#1f7e9b;}.cls-4{fill:#00647f;}.cls-5{fill:#004860;}.cls-6{fill:#58595b;}</style>
  </defs>
  <rect class="cls-1" x="115.24" y="260.04" width="98.71" height="98.71" transform="translate(-170.57 207.01) rotate(-45)"></rect>
  <rect class="cls-2" x="45.44" y="190.24" width="98.71" height="98.71" transform="translate(-141.66 137.21) rotate(-45)"></rect>
  <rect class="cls-3" x="185.04" y="190.24" width="98.71" height="98.71" transform="translate(-100.77 235.92) rotate(-45)"></rect>
  <rect class="cls-4" x="254.84" y="120.44" width="98.71" height="98.71" transform="translate(-30.97 264.84) rotate(-45)"></rect>
  <rect class="cls-5" x="324.64" y="190.24" width="98.71" height="98.71" transform="translate(-59.88 334.63) rotate(-45)"></rect>
  <path class="cls-6" d="M773.8,439,754.18,383.5a60,60,0,0,1-2.2-10.63h-.62a54.63,54.63,0,0,1-2.26,10.45L729.57,439l-6,18.06L711,493.64H687.09l53-140.63h24.24L817,493.64H793L779.87,457ZM646.15,493.64v-90.8c0-7.93.4-17.32,1.27-28.23h-.56q-2.75,11.72-4.28,15.34L599.81,493.64H585.56L542.64,390.78q-1.64-3.9-4.28-16.17h-.56q.93,12.74.93,30.68v88.35H518.46V353H548.9l38,92.88A103.73,103.73,0,0,1,592.84,464h.62c1.15-3.81,3.29-9.91,6.35-18.34L638.49,353h29.26V493.64ZM485,435.35Q485,496,429.49,496q-53.19,0-53.18-58.63V353h21.78v83.8q0,40,33,40,32.07,0,32.05-38.68V353H485ZM262.69,464.51q16.19,13.15,38.06,13.14,28,0,28-19.15a17.24,17.24,0,0,0-3.07-10,29.23,29.23,0,0,0-8.31-7.78q-5.25-3.3-20.67-10.66-19-9.06-26.5-18.44a33.94,33.94,0,0,1-7.56-21.94q0-18.18,14.35-28.61t36.69-10.44q21.15,0,31.95,5.18v22.31q-13-9-32.41-9-12.42,0-20.05,5t-7.63,13.7a16.82,16.82,0,0,0,5.58,13c3.72,3.37,11.59,7.93,23.55,13.6q21,9.81,29,19.68a34.82,34.82,0,0,1,8,22.62q0,19.11-13.82,29.17T299.57,496a103.29,103.29,0,0,1-20-2.17q-11-2.19-16.89-5.83Z"></path>
</svg>
